<?xml version="1.0" standalone="no"?>
<!DOCTYPE svg PUBLIC "-//W3C//DTD SVG 20010904//EN"
 "http://www.w3.org/TR/2001/REC-SVG-20010904/DTD/svg10.dtd">
<svg version="1.0" xmlns="http://www.w3.org/2000/svg"
 width="150.000000pt" height="150.000000pt" viewBox="0 0 150.000000 150.000000"
 preserveAspectRatio="xMidYMid meet">
<metadata>
Created by potrace 1.11, written by Peter Selinger 2001-2013
</metadata>
<g transform="translate(0.000000,150.000000) scale(0.100000,-0.100000)"
fill="#000000" stroke="none">
<path d="M755 1402 c-6 -5 -30 -16 -55 -25 -39 -14 -69 -22 -150 -44 -8 -3
-49 -5 -90 -6 -72 -2 -78 0 -117 31 -40 31 -62 40 -64 25 0 -5 -2 -17 -5 -28
-2 -11 -5 -39 -6 -62 -2 -24 -6 -43 -9 -43 -8 0 -4 -296 5 -360 4 -25 11 -67
17 -95 6 -27 12 -61 15 -75 18 -114 81 -265 161 -387 60 -92 238 -253 279
-253 7 0 14 -7 18 -15 4 -12 22 -4 81 36 171 116 276 254 355 469 33 87 36
100 46 160 3 19 8 38 10 41 3 6 11 60 19 129 2 14 3 40 4 58 1 24 5 31 14 26
7 -5 6 0 -3 11 -10 13 -11 16 -2 11 11 -6 13 11 11 86 -1 55 -6 96 -13 100 -7
5 -6 8 4 8 10 0 11 3 4 8 -7 4 -15 34 -18 67 -4 33 -9 74 -12 92 l-6 31 -42
-29 c-24 -15 -54 -32 -67 -37 -23 -9 -123 -8 -164 1 -41 10 -140 40 -150 45
-5 4 -17 7 -25 9 -8 1 -16 7 -18 12 -4 13 -15 14 -27 3z m97 -62 c153 -51 257
-58 327 -22 24 13 45 21 48 19 5 -6 16 -167 17 -247 0 -75 -12 -242 -18 -261
-3 -8 -7 -30 -10 -49 -3 -19 -8 -44 -11 -55 -2 -11 -9 -40 -15 -64 -10 -41
-32 -100 -68 -181 -59 -134 -172 -267 -298 -351 l-56 -37 -37 21 c-165 94
-316 298 -380 512 -19 64 -25 89 -36 150 -2 11 -6 31 -10 45 -16 74 -23 372
-11 455 3 17 5 40 5 53 l1 22 40 -26 c65 -43 191 -37 346 19 38 14 71 25 73
26 1 1 44 -13 93 -29z"/>
<path d="M739 1326 c-2 -3 -45 -17 -94 -31 -108 -31 -245 -40 -287 -19 -28 14
-28 14 -30 -18 -11 -209 5 -441 36 -546 3 -9 7 -28 10 -42 7 -42 47 -141 88
-219 60 -116 152 -220 252 -287 l54 -36 59 43 c170 125 298 329 339 542 2 10
6 28 10 40 4 12 8 33 10 47 1 14 6 41 9 60 10 51 14 395 5 410 -6 10 -15 10
-39 2 -35 -13 -174 -9 -223 6 -18 6 -62 20 -98 31 -64 21 -92 25 -101 17z"/>
</g>
</svg>
